<?xml version="1.0" encoding="UTF-8" standalone="no"?>
<!DOCTYPE svg PUBLIC "-//W3C//DTD SVG 1.1//EN"
 "http://www.w3.org/Graphics/SVG/1.1/DTD/svg11.dtd">
<!-- Generated by graphviz version 12.1.2 (20240928.0832)
 -->
<!-- Pages: 1 -->
<svg width="1669pt" height="946pt"
 viewBox="0.00 0.00 1668.53 945.99" xmlns="http://www.w3.org/2000/svg" xmlns:xlink="http://www.w3.org/1999/xlink">
<g id="graph0" class="graph" transform="scale(1 1) rotate(0) translate(4 941.99)">
<polygon fill="white" stroke="none" points="-4,4 -4,-941.99 1664.53,-941.99 1664.53,4 -4,4"/>
<!-- node0 -->
<g id="node1" class="node">
<title>node0</title>
<ellipse fill="lightblue" stroke="black" cx="138.06" cy="-659.99" rx="138.06" ry="28.99"/>
<text text-anchor="middle" x="138.06" y="-663.19" font-family="Times New Roman,serif" font-size="14.00">How to choose the optimal CDC</text>
<text text-anchor="middle" x="138.06" y="-646.69" font-family="Times New Roman,serif" font-size="14.00">solution for Big Data project?</text>
</g>
<!-- node1 -->
<g id="node2" class="node">
<title>node1</title>
<ellipse fill="lightgreen" stroke="black" cx="701.49" cy="-854.99" rx="128.52" ry="28.99"/>
<text text-anchor="middle" x="701.49" y="-858.19" font-family="Times New Roman,serif" font-size="14.00">Define Data change frequency</text>
<text text-anchor="middle" x="701.49" y="-841.69" font-family="Times New Roman,serif" font-size="14.00">and volume</text>
</g>
<!-- node0&#45;&gt;node1 -->
<g id="edge1" class="edge">
<title>node0&#45;&gt;node1</title>
<path fill="none" stroke="black" d="M169.91,-688.45C201.48,-715.96 253.15,-756.66 305.13,-778.99 388.84,-814.97 489.83,-834.01 568.78,-844.04"/>
<polygon fill="black" stroke="black" points="567.91,-847.46 578.27,-845.21 568.77,-840.51 567.91,-847.46"/>
</g>
<!-- node5 -->
<g id="node6" class="node">
<title>node5</title>
<ellipse fill="lightgreen" stroke="black" cx="424.55" cy="-745.99" rx="119.42" ry="18"/>
<text text-anchor="middle" x="424.55" y="-740.94" font-family="Times New Roman,serif" font-size="14.00">Assess Latency requirements</text>
</g>
<!-- node0&#45;&gt;node5 -->
<g id="edge5" class="edge">
<title>node0&#45;&gt;node5</title>
<path fill="none" stroke="black" d="M218.31,-683.95C262.53,-697.32 316.93,-713.76 358.61,-726.36"/>
<polygon fill="black" stroke="black" points="357.43,-729.66 368.01,-729.2 359.45,-722.96 357.43,-729.66"/>
</g>
<!-- node8 -->
<g id="node9" class="node">
<title>node8</title>
<ellipse fill="lightgreen" stroke="black" cx="424.55" cy="-659.99" rx="104.12" ry="28.99"/>
<text text-anchor="middle" x="424.55" y="-663.19" font-family="Times New Roman,serif" font-size="14.00">Evaluate transformation</text>
<text text-anchor="middle" x="424.55" y="-646.69" font-family="Times New Roman,serif" font-size="14.00">complexity</text>
</g>
<!-- node0&#45;&gt;node8 -->
<g id="edge8" class="edge">
<title>node0&#45;&gt;node8</title>
<path fill="none" stroke="black" d="M276.31,-659.99C287.16,-659.99 298.05,-659.99 308.72,-659.99"/>
<polygon fill="black" stroke="black" points="308.7,-663.49 318.7,-659.99 308.7,-656.49 308.7,-663.49"/>
</g>
<!-- node11 -->
<g id="node12" class="node">
<title>node11</title>
<ellipse fill="lightgreen" stroke="black" cx="701.49" cy="-551.99" rx="116.32" ry="28.99"/>
<text text-anchor="middle" x="701.49" y="-555.19" font-family="Times New Roman,serif" font-size="14.00">Consider infrastructure and</text>
<text text-anchor="middle" x="701.49" y="-538.69" font-family="Times New Roman,serif" font-size="14.00">integration</text>
</g>
<!-- node0&#45;&gt;node11 -->
<g id="edge11" class="edge">
<title>node0&#45;&gt;node11</title>
<path fill="none" stroke="black" d="M222.77,-636.74C249.02,-629.88 278.17,-622.69 305.13,-616.99 400.03,-596.95 508.84,-579.45 588.26,-567.68"/>
<polygon fill="black" stroke="black" points="588.39,-571.2 597.77,-566.28 587.37,-564.27 588.39,-571.2"/>
</g>
<!-- node16 -->
<g id="node17" class="node">
<title>node16</title>
<ellipse fill="lightgreen" stroke="black" cx="424.55" cy="-312.99" rx="111.02" ry="28.99"/>
<text text-anchor="middle" x="424.55" y="-316.19" font-family="Times New Roman,serif" font-size="14.00">Consider the Data storage</text>
<text text-anchor="middle" x="424.55" y="-299.69" font-family="Times New Roman,serif" font-size="14.00">destination</text>
</g>
<!-- node0&#45;&gt;node16 -->
<g id="edge16" class="edge">
<title>node0&#45;&gt;node16</title>
<path fill="none" stroke="black" d="M162.83,-631C214.31,-568.21 336.08,-419.69 393.1,-350.13"/>
<polygon fill="black" stroke="black" points="395.46,-352.78 399.09,-342.83 390.04,-348.34 395.46,-352.78"/>
</g>
<!-- node2 -->
<g id="node3" class="node">
<title>node2</title>
<ellipse fill="lightcoral" stroke="black" cx="1253.93" cy="-919.99" rx="27.81" ry="18"/>
<text text-anchor="middle" x="1253.93" y="-914.94" font-family="Times New Roman,serif" font-size="14.00">Low</text>
</g>
<!-- node1&#45;&gt;node2 -->
<g id="edge2" class="edge">
<title>node1&#45;&gt;node2</title>
<path fill="none" stroke="black" d="M791.94,-875.89C813.78,-880.43 837.15,-884.82 859,-887.99 988.66,-906.85 1144.07,-915.38 1214.67,-918.5"/>
<polygon fill="black" stroke="black" points="1214.4,-921.99 1224.54,-918.92 1214.7,-915 1214.4,-921.99"/>
</g>
<!-- node3 -->
<g id="node4" class="node">
<title>node3</title>
<ellipse fill="lightcoral" stroke="black" cx="975.85" cy="-854.99" rx="75.41" ry="18"/>
<text text-anchor="middle" x="975.85" y="-849.94" font-family="Times New Roman,serif" font-size="14.00">Moderate to high</text>
</g>
<!-- node1&#45;&gt;node3 -->
<g id="edge3" class="edge">
<title>node1&#45;&gt;node3</title>
<path fill="none" stroke="black" d="M830.29,-854.99C850.1,-854.99 870.13,-854.99 888.73,-854.99"/>
<polygon fill="black" stroke="black" points="888.59,-858.49 898.59,-854.99 888.59,-851.49 888.59,-858.49"/>
</g>
<!-- node25 -->
<g id="node26" class="node">
<title>node25</title>
<ellipse fill="gold" stroke="black" cx="1537.84" cy="-551.99" rx="122.68" ry="145.66"/>
<text text-anchor="middle" x="1537.84" y="-637.69" font-family="Times New Roman,serif" font-size="14.00">Select the CDC solution that</text>
<text text-anchor="middle" x="1537.84" y="-621.19" font-family="Times New Roman,serif" font-size="14.00">aligns with your needs for</text>
<text text-anchor="middle" x="1537.84" y="-604.69" font-family="Times New Roman,serif" font-size="14.00">data speed (real&#45;time or</text>
<text text-anchor="middle" x="1537.84" y="-588.19" font-family="Times New Roman,serif" font-size="14.00">batch), transformation</text>
<text text-anchor="middle" x="1537.84" y="-571.69" font-family="Times New Roman,serif" font-size="14.00">complexity, and storage type</text>
<text text-anchor="middle" x="1537.84" y="-555.19" font-family="Times New Roman,serif" font-size="14.00">(data lake or warehouse).</text>
<text text-anchor="middle" x="1537.84" y="-538.69" font-family="Times New Roman,serif" font-size="14.00">Ensure it balances</text>
<text text-anchor="middle" x="1537.84" y="-522.19" font-family="Times New Roman,serif" font-size="14.00">performance and cost while</text>
<text text-anchor="middle" x="1537.84" y="-505.69" font-family="Times New Roman,serif" font-size="14.00">keeping the pipeline simple</text>
<text text-anchor="middle" x="1537.84" y="-489.19" font-family="Times New Roman,serif" font-size="14.00">and scalable. This final</text>
<text text-anchor="middle" x="1537.84" y="-472.69" font-family="Times New Roman,serif" font-size="14.00">choice drives efficient data</text>
<text text-anchor="middle" x="1537.84" y="-456.19" font-family="Times New Roman,serif" font-size="14.00">updates across your system.</text>
</g>
<!-- node2&#45;&gt;node25 -->
<g id="edge33" class="edge">
<title>node2&#45;&gt;node25</title>
<path fill="none" stroke="black" d="M1282.14,-920.1C1311.06,-918.81 1356.6,-912.6 1386.16,-887.99 1442.48,-841.11 1478.57,-768.86 1501.26,-703.34"/>
<polygon fill="black" stroke="black" points="1504.56,-704.5 1504.44,-693.91 1497.93,-702.26 1504.56,-704.5"/>
</g>
<!-- node4 -->
<g id="node5" class="node">
<title>node4</title>
<ellipse fill="orange" stroke="black" cx="1253.93" cy="-854.99" rx="119.42" ry="18"/>
<text text-anchor="middle" x="1253.93" y="-849.94" font-family="Times New Roman,serif" font-size="14.00">Assess Latency requirements</text>
</g>
<!-- node3&#45;&gt;node4 -->
<g id="edge4" class="edge">
<title>node3&#45;&gt;node4</title>
<path fill="none" stroke="black" d="M1051.56,-854.99C1073.65,-854.99 1098.5,-854.99 1123.01,-854.99"/>
<polygon fill="black" stroke="black" points="1122.72,-858.49 1132.72,-854.99 1122.72,-851.49 1122.72,-858.49"/>
</g>
<!-- node4&#45;&gt;node25 -->
<g id="edge28" class="edge">
<title>node4&#45;&gt;node25</title>
<path fill="none" stroke="black" d="M1345.85,-843.24C1360.27,-838.54 1374.32,-832.02 1386.16,-822.99 1428.54,-790.69 1460.67,-742.85 1484.15,-696.32"/>
<polygon fill="black" stroke="black" points="1487.23,-697.98 1488.51,-687.46 1480.95,-694.89 1487.23,-697.98"/>
</g>
<!-- node6 -->
<g id="node7" class="node">
<title>node6</title>
<ellipse fill="lightcoral" stroke="black" cx="701.49" cy="-751.99" rx="128.52" ry="28.99"/>
<text text-anchor="middle" x="701.49" y="-755.19" font-family="Times New Roman,serif" font-size="14.00">Real&#45;Time or Near Real&#45;Time</text>
<text text-anchor="middle" x="701.49" y="-738.69" font-family="Times New Roman,serif" font-size="14.00">(&lt; 1 sec)</text>
</g>
<!-- node5&#45;&gt;node6 -->
<g id="edge6" class="edge">
<title>node5&#45;&gt;node6</title>
<path fill="none" stroke="black" d="M542.94,-748.56C549.24,-748.69 555.59,-748.83 561.94,-748.97"/>
<polygon fill="black" stroke="black" points="561.79,-752.47 571.86,-749.19 561.94,-745.47 561.79,-752.47"/>
</g>
<!-- node7 -->
<g id="node8" class="node">
<title>node7</title>
<ellipse fill="lightyellow" stroke="black" cx="1253.93" cy="-755.99" rx="121.09" ry="52.33"/>
<text text-anchor="middle" x="1253.93" y="-775.69" font-family="Times New Roman,serif" font-size="14.00">Captures and applies data</text>
<text text-anchor="middle" x="1253.93" y="-759.19" font-family="Times New Roman,serif" font-size="14.00">changes in real&#45;time as they</text>
<text text-anchor="middle" x="1253.93" y="-742.69" font-family="Times New Roman,serif" font-size="14.00">happen, ensuring immediate</text>
<text text-anchor="middle" x="1253.93" y="-726.19" font-family="Times New Roman,serif" font-size="14.00">updates.</text>
</g>
<!-- node6&#45;&gt;node7 -->
<g id="edge7" class="edge">
<title>node6&#45;&gt;node7</title>
<path fill="none" stroke="black" d="M830.15,-752.92C917.47,-753.56 1032.93,-754.39 1121.12,-755.04"/>
<polygon fill="black" stroke="black" points="1121.02,-758.53 1131.04,-755.11 1121.07,-751.53 1121.02,-758.53"/>
</g>
<!-- node7&#45;&gt;node25 -->
<g id="edge32" class="edge">
<title>node7&#45;&gt;node25</title>
<path fill="none" stroke="black" d="M1332.14,-715.82C1350.29,-705.47 1369.25,-693.88 1386.16,-681.99 1401.28,-671.36 1416.66,-659.5 1431.54,-647.38"/>
<polygon fill="black" stroke="black" points="1433.57,-650.24 1439.06,-641.19 1429.12,-644.84 1433.57,-650.24"/>
</g>
<!-- node9 -->
<g id="node10" class="node">
<title>node9</title>
<ellipse fill="lightcoral" stroke="black" cx="701.49" cy="-659.99" rx="112.08" ry="28.99"/>
<text text-anchor="middle" x="701.49" y="-663.19" font-family="Times New Roman,serif" font-size="14.00">Periodic/Batch Processing</text>
<text text-anchor="middle" x="701.49" y="-646.69" font-family="Times New Roman,serif" font-size="14.00">(e.g., 5 min or more)</text>
</g>
<!-- node8&#45;&gt;node9 -->
<g id="edge9" class="edge">
<title>node8&#45;&gt;node9</title>
<path fill="none" stroke="black" d="M529.1,-659.99C545.05,-659.99 561.66,-659.99 577.98,-659.99"/>
<polygon fill="black" stroke="black" points="577.71,-663.49 587.71,-659.99 577.71,-656.49 577.71,-663.49"/>
</g>
<!-- node10 -->
<g id="node11" class="node">
<title>node10</title>
<ellipse fill="lightyellow" stroke="black" cx="975.85" cy="-659.99" rx="116.85" ry="52.33"/>
<text text-anchor="middle" x="975.85" y="-679.69" font-family="Times New Roman,serif" font-size="14.00">Collects and processes data</text>
<text text-anchor="middle" x="975.85" y="-663.19" font-family="Times New Roman,serif" font-size="14.00">changes periodically at set</text>
<text text-anchor="middle" x="975.85" y="-646.69" font-family="Times New Roman,serif" font-size="14.00">intervals, updating data in</text>
<text text-anchor="middle" x="975.85" y="-630.19" font-family="Times New Roman,serif" font-size="14.00">batches.</text>
</g>
<!-- node9&#45;&gt;node10 -->
<g id="edge10" class="edge">
<title>node9&#45;&gt;node10</title>
<path fill="none" stroke="black" d="M814.05,-659.99C824.96,-659.99 836.08,-659.99 847.12,-659.99"/>
<polygon fill="black" stroke="black" points="847.08,-663.49 857.08,-659.99 847.08,-656.49 847.08,-663.49"/>
</g>
<!-- node10&#45;&gt;node25 -->
<g id="edge30" class="edge">
<title>node10&#45;&gt;node25</title>
<path fill="none" stroke="black" d="M1092.79,-663.81C1175.94,-663.59 1289.82,-657.22 1386.16,-629.99 1396.26,-627.14 1406.46,-623.57 1416.55,-619.54"/>
<polygon fill="black" stroke="black" points="1417.73,-622.84 1425.62,-615.76 1415.04,-616.38 1417.73,-622.84"/>
</g>
<!-- node12 -->
<g id="node13" class="node">
<title>node12</title>
<ellipse fill="lightcoral" stroke="black" cx="975.85" cy="-551.99" rx="115.84" ry="18"/>
<text text-anchor="middle" x="975.85" y="-546.94" font-family="Times New Roman,serif" font-size="14.00">Cloud&#45;Native Environments</text>
</g>
<!-- node11&#45;&gt;node12 -->
<g id="edge12" class="edge">
<title>node11&#45;&gt;node12</title>
<path fill="none" stroke="black" d="M817.99,-551.99C828,-551.99 838.16,-551.99 848.25,-551.99"/>
<polygon fill="black" stroke="black" points="848.09,-555.49 858.09,-551.99 848.09,-548.49 848.09,-555.49"/>
</g>
<!-- node14 -->
<g id="node15" class="node">
<title>node14</title>
<ellipse fill="lightcoral" stroke="black" cx="975.85" cy="-472.99" rx="97.93" ry="18"/>
<text text-anchor="middle" x="975.85" y="-467.94" font-family="Times New Roman,serif" font-size="14.00">On&#45;Premises or Hybrid</text>
</g>
<!-- node11&#45;&gt;node14 -->
<g id="edge14" class="edge">
<title>node11&#45;&gt;node14</title>
<path fill="none" stroke="black" d="M778.72,-529.88C820.43,-517.78 871.53,-502.96 911.11,-491.48"/>
<polygon fill="black" stroke="black" points="911.86,-494.91 920.49,-488.76 909.91,-488.18 911.86,-494.91"/>
</g>
<!-- node13 -->
<g id="node14" class="node">
<title>node13</title>
<ellipse fill="lightyellow" stroke="black" cx="1253.93" cy="-551.99" rx="122.15" ry="63.99"/>
<text text-anchor="middle" x="1253.93" y="-579.94" font-family="Times New Roman,serif" font-size="14.00">Prefer Delta Lake on</text>
<text text-anchor="middle" x="1253.93" y="-563.44" font-family="Times New Roman,serif" font-size="14.00">Databricks or BigQuery&quot;s</text>
<text text-anchor="middle" x="1253.93" y="-546.94" font-family="Times New Roman,serif" font-size="14.00">Change Data Capture if</text>
<text text-anchor="middle" x="1253.93" y="-530.44" font-family="Times New Roman,serif" font-size="14.00">already invested in the cloud</text>
<text text-anchor="middle" x="1253.93" y="-513.94" font-family="Times New Roman,serif" font-size="14.00">for seamless integration</text>
</g>
<!-- node12&#45;&gt;node13 -->
<g id="edge13" class="edge">
<title>node12&#45;&gt;node13</title>
<path fill="none" stroke="black" d="M1091.93,-551.99C1101.19,-551.99 1110.59,-551.99 1119.96,-551.99"/>
<polygon fill="black" stroke="black" points="1119.84,-555.49 1129.84,-551.99 1119.84,-548.49 1119.84,-555.49"/>
</g>
<!-- node13&#45;&gt;node25 -->
<g id="edge29" class="edge">
<title>node13&#45;&gt;node25</title>
<path fill="none" stroke="black" d="M1376.53,-551.99C1385.44,-551.99 1394.45,-551.99 1403.42,-551.99"/>
<polygon fill="black" stroke="black" points="1403.24,-555.49 1413.24,-551.99 1403.24,-548.49 1403.24,-555.49"/>
</g>
<!-- node15 -->
<g id="node16" class="node">
<title>node15</title>
<ellipse fill="lightyellow" stroke="black" cx="1253.93" cy="-406.99" rx="129.05" ry="52.33"/>
<text text-anchor="middle" x="1253.93" y="-426.69" font-family="Times New Roman,serif" font-size="14.00">Kafka as a messaging layer</text>
<text text-anchor="middle" x="1253.93" y="-410.19" font-family="Times New Roman,serif" font-size="14.00">with Debezium or Flink for</text>
<text text-anchor="middle" x="1253.93" y="-393.69" font-family="Times New Roman,serif" font-size="14.00">flexibility in both real&#45;time</text>
<text text-anchor="middle" x="1253.93" y="-377.19" font-family="Times New Roman,serif" font-size="14.00">and on&#45;premises/hybrid setups</text>
</g>
<!-- node14&#45;&gt;node15 -->
<g id="edge15" class="edge">
<title>node14&#45;&gt;node15</title>
<path fill="none" stroke="black" d="M1037.1,-458.59C1064.68,-452 1098.41,-443.93 1130.94,-436.16"/>
<polygon fill="black" stroke="black" points="1131.53,-439.61 1140.45,-433.88 1129.91,-432.8 1131.53,-439.61"/>
</g>
<!-- node15&#45;&gt;node25 -->
<g id="edge27" class="edge">
<title>node15&#45;&gt;node25</title>
<path fill="none" stroke="black" d="M1335.47,-448.02C1352.23,-456.59 1369.78,-465.57 1386.16,-473.99 1395.49,-478.79 1405.15,-483.76 1414.85,-488.77"/>
<polygon fill="black" stroke="black" points="1413.13,-491.82 1423.62,-493.3 1416.34,-485.6 1413.13,-491.82"/>
</g>
<!-- node17 -->
<g id="node18" class="node">
<title>node17</title>
<ellipse fill="lightcoral" stroke="black" cx="701.49" cy="-312.99" rx="49.3" ry="18"/>
<text text-anchor="middle" x="701.49" y="-307.94" font-family="Times New Roman,serif" font-size="14.00">Data Lake</text>
</g>
<!-- node16&#45;&gt;node17 -->
<g id="edge17" class="edge">
<title>node16&#45;&gt;node17</title>
<path fill="none" stroke="black" d="M535.79,-312.99C571.56,-312.99 609.89,-312.99 640.56,-312.99"/>
<polygon fill="black" stroke="black" points="640.41,-316.49 650.41,-312.99 640.41,-309.49 640.41,-316.49"/>
</g>
<!-- node22 -->
<g id="node23" class="node">
<title>node22</title>
<ellipse fill="lightcoral" stroke="black" cx="975.85" cy="-182.99" rx="71.31" ry="18"/>
<text text-anchor="middle" x="975.85" y="-177.94" font-family="Times New Roman,serif" font-size="14.00">Data Warehouse</text>
</g>
<!-- node16&#45;&gt;node22 -->
<g id="edge24" class="edge">
<title>node16&#45;&gt;node22</title>
<path fill="none" stroke="black" d="M508.08,-293.46C618.53,-267.32 812.04,-221.53 911.65,-197.95"/>
<polygon fill="black" stroke="black" points="912.34,-201.38 921.26,-195.68 910.73,-194.57 912.34,-201.38"/>
</g>
<!-- node18 -->
<g id="node19" class="node">
<title>node18</title>
<ellipse fill="lightyellow" stroke="black" cx="975.85" cy="-377.99" rx="51.86" ry="18"/>
<text text-anchor="middle" x="975.85" y="-372.94" font-family="Times New Roman,serif" font-size="14.00">Delta Lake</text>
</g>
<!-- node17&#45;&gt;node18 -->
<g id="edge18" class="edge">
<title>node17&#45;&gt;node18</title>
<path fill="none" stroke="black" d="M743.56,-322.79C791.04,-334.13 869.35,-352.82 921.51,-365.26"/>
<polygon fill="black" stroke="black" points="920.54,-368.63 931.08,-367.55 922.16,-361.82 920.54,-368.63"/>
</g>
<!-- node19 -->
<g id="node20" class="node">
<title>node19</title>
<ellipse fill="lightyellow" stroke="black" cx="975.85" cy="-312.99" rx="60.05" ry="18"/>
<text text-anchor="middle" x="975.85" y="-307.94" font-family="Times New Roman,serif" font-size="14.00">Apache Hudi</text>
</g>
<!-- node17&#45;&gt;node19 -->
<g id="edge19" class="edge">
<title>node17&#45;&gt;node19</title>
<path fill="none" stroke="black" d="M751.18,-312.99C793.82,-312.99 856.3,-312.99 904.39,-312.99"/>
<polygon fill="black" stroke="black" points="904.15,-316.49 914.15,-312.99 904.15,-309.49 904.15,-316.49"/>
</g>
<!-- node20 -->
<g id="node21" class="node">
<title>node20</title>
<ellipse fill="lightyellow" stroke="black" cx="975.85" cy="-247.99" rx="38.56" ry="18"/>
<text text-anchor="middle" x="975.85" y="-242.94" font-family="Times New Roman,serif" font-size="14.00">Iceberg</text>
</g>
<!-- node17&#45;&gt;node20 -->
<g id="edge20" class="edge">
<title>node17&#45;&gt;node20</title>
<path fill="none" stroke="black" d="M743.56,-303.19C793.57,-291.26 877.77,-271.16 929.6,-258.79"/>
<polygon fill="black" stroke="black" points="930.39,-262.2 939.31,-256.48 928.77,-255.39 930.39,-262.2"/>
</g>
<!-- node21 -->
<g id="node22" class="node">
<title>node21</title>
<ellipse fill="orange" stroke="black" cx="1253.93" cy="-296.99" rx="132.23" ry="28.99"/>
<text text-anchor="middle" x="1253.93" y="-300.19" font-family="Times New Roman,serif" font-size="14.00">CDC in batch with incremental</text>
<text text-anchor="middle" x="1253.93" y="-283.69" font-family="Times New Roman,serif" font-size="14.00">updates and upserts</text>
</g>
<!-- node18&#45;&gt;node21 -->
<g id="edge21" class="edge">
<title>node18&#45;&gt;node21</title>
<path fill="none" stroke="black" d="M1017.68,-367.01C1039.9,-360.96 1067.86,-353.22 1092.7,-345.99 1116.44,-339.09 1142.07,-331.37 1165.73,-324.13"/>
<polygon fill="black" stroke="black" points="1166.46,-327.57 1175,-321.29 1164.41,-320.88 1166.46,-327.57"/>
</g>
<!-- node19&#45;&gt;node21 -->
<g id="edge22" class="edge">
<title>node19&#45;&gt;node21</title>
<path fill="none" stroke="black" d="M1035.06,-309.62C1058.39,-308.27 1086.34,-306.65 1114.33,-305.03"/>
<polygon fill="black" stroke="black" points="1114.17,-308.54 1123.95,-304.47 1113.77,-301.55 1114.17,-308.54"/>
</g>
<!-- node20&#45;&gt;node21 -->
<g id="edge23" class="edge">
<title>node20&#45;&gt;node21</title>
<path fill="none" stroke="black" d="M1012.38,-254.3C1044.47,-259.99 1093.49,-268.69 1138.92,-276.76"/>
<polygon fill="black" stroke="black" points="1138.13,-280.17 1148.58,-278.47 1139.35,-273.28 1138.13,-280.17"/>
</g>
<!-- node21&#45;&gt;node25 -->
<g id="edge35" class="edge">
<title>node21&#45;&gt;node25</title>
<path fill="none" stroke="black" d="M1345.49,-318.19C1359.87,-323.88 1374,-331.04 1386.16,-339.99 1415.73,-361.77 1441.72,-391.11 1463.43,-421.01"/>
<polygon fill="black" stroke="black" points="1460.5,-422.94 1469.15,-429.07 1466.21,-418.89 1460.5,-422.94"/>
</g>
<!-- node23 -->
<g id="node24" class="node">
<title>node23</title>
<ellipse fill="lightyellow" stroke="black" cx="1253.93" cy="-197.99" rx="127.99" ry="40.66"/>
<text text-anchor="middle" x="1253.93" y="-209.44" font-family="Times New Roman,serif" font-size="14.00">Kafka Connect can push CDC</text>
<text text-anchor="middle" x="1253.93" y="-192.94" font-family="Times New Roman,serif" font-size="14.00">data to these warehouses in</text>
<text text-anchor="middle" x="1253.93" y="-176.44" font-family="Times New Roman,serif" font-size="14.00">real time</text>
</g>
<!-- node22&#45;&gt;node23 -->
<g id="edge25" class="edge">
<title>node22&#45;&gt;node23</title>
<path fill="none" stroke="black" d="M1045.81,-186.74C1067.27,-187.91 1091.74,-189.24 1116.16,-190.56"/>
<polygon fill="black" stroke="black" points="1115.68,-194.04 1125.86,-191.09 1116.06,-187.05 1115.68,-194.04"/>
</g>
<!-- node24 -->
<g id="node25" class="node">
<title>node24</title>
<ellipse fill="lightyellow" stroke="black" cx="1253.93" cy="-63.99" rx="109.42" ry="63.99"/>
<text text-anchor="middle" x="1253.93" y="-91.94" font-family="Times New Roman,serif" font-size="14.00">Consider native CDC</text>
<text text-anchor="middle" x="1253.93" y="-75.44" font-family="Times New Roman,serif" font-size="14.00">capabilities like</text>
<text text-anchor="middle" x="1253.93" y="-58.94" font-family="Times New Roman,serif" font-size="14.00">BigQuery’s Dataflow</text>
<text text-anchor="middle" x="1253.93" y="-42.44" font-family="Times New Roman,serif" font-size="14.00">templates for ingestion if</text>
<text text-anchor="middle" x="1253.93" y="-25.94" font-family="Times New Roman,serif" font-size="14.00">using Google Cloud</text>
</g>
<!-- node22&#45;&gt;node24 -->
<g id="edge26" class="edge">
<title>node22&#45;&gt;node24</title>
<path fill="none" stroke="black" d="M1013.23,-167.31C1049.11,-151.85 1105.56,-127.52 1154.67,-106.35"/>
<polygon fill="black" stroke="black" points="1155.84,-109.66 1163.63,-102.48 1153.07,-103.23 1155.84,-109.66"/>
</g>
<!-- node23&#45;&gt;node25 -->
<g id="edge31" class="edge">
<title>node23&#45;&gt;node25</title>
<path fill="none" stroke="black" d="M1345.46,-226.61C1360.17,-233.95 1374.41,-242.98 1386.16,-253.99 1430.47,-295.52 1463.75,-352.96 1487.6,-406.33"/>
<polygon fill="black" stroke="black" points="1484.27,-407.45 1491.49,-415.21 1490.68,-404.64 1484.27,-407.45"/>
</g>
<!-- node24&#45;&gt;node25 -->
<g id="edge34" class="edge">
<title>node24&#45;&gt;node25</title>
<path fill="none" stroke="black" d="M1340.25,-103.79C1357.14,-114.65 1373.53,-127.73 1386.16,-142.99 1446.73,-216.24 1484.14,-316.08 1506.53,-398.78"/>
<polygon fill="black" stroke="black" points="1503.12,-399.58 1509.07,-408.34 1509.89,-397.78 1503.12,-399.58"/>
</g>
</g>
</svg>
